PathFileType	4	(X/Y/Z)	/Users/itak/Documents/Research/Walk-IL/dataset/trc/00080_00006.trc
DataRate	CameraRate	NumFrames	NumMarkers	Units	OrigDataRate	OrigDataStartFrame	OrigNumFrames
100.000000	100.000000	4	53	mm	100.000000	409	546
Frame#	Time	RPSI			LPSI			L3			STRN			T10			C7			CLAV			RBAK			LBAK			LSHO			LUPA			LAEL			LAOL			LWTS			LWPS			LFRA			LIFD			LHPS			LHTS			RSHO			RUPA			RAEL			RAOL			RWTS			RWPS			RFRA			RIFD			RHTS			RHPS			RBHD			LFHD			RFHD			LBHD			LHIP			RHIP			RASI			LASI			LKNE			LTHI			LANK			LTIP			LTOE			LMT1			LMT5			LHEE			RKNE			RTHI			RANK			RTIP			RTOE			RMT1			RMT5			RHEE			
		X1	Y1	Z1	X2	Y2	Z2	X3	Y3	Z3	X4	Y4	Z4	X5	Y5	Z5	X6	Y6	Z6	X7	Y7	Z7	X8	Y8	Z8	X9	Y9	Z9	X10	Y10	Z10	X11	Y11	Z11	X12	Y12	Z12	X13	Y13	Z13	X14	Y14	Z14	X15	Y15	Z15	X16	Y16	Z16	X17	Y17	Z17	X18	Y18	Z18	X19	Y19	Z19	X20	Y20	Z20	X21	Y21	Z21	X22	Y22	Z22	X23	Y23	Z23	X24	Y24	Z24	X25	Y25	Z25	X26	Y26	Z26	X27	Y27	Z27	X28	Y28	Z28	X29	Y29	Z29	X30	Y30	Z30	X31	Y31	Z31	X32	Y32	Z32	X33	Y33	Z33	X34	Y34	Z34	X35	Y35	Z35	X36	Y36	Z36	X37	Y37	Z37	X38	Y38	Z38	X39	Y39	Z39	X40	Y40	Z40	X41	Y41	Z41	X42	Y42	Z42	X43	Y43	Z43	X44	Y44	Z44	X45	Y45	Z45	X46	Y46	Z46	X47	Y47	Z47	X48	Y48	Z48	X49	Y49	Z49	X50	Y50	Z50	X51	Y51	Z51	X52	Y52	Z52	X53	Y53	Z53	

410	4.09	538.4210815429688	1008.877014160156	-448.9615783691406	366.9446411132812	999.7112426757812	-480.23779296875	441.8891296386719	1061.140625	-468.8157348632812	523.5995483398438	1269.42724609375	-696.2305297851562	425.3764038085938	1190.632446289062	-449.337890625	449.4194946289062	1460.2421875	-490.51416015625	514.4224243164062	1381.859008789062	-661.5591430664062	492.0804138183594	1315.692749023438	-414.1617431640625	346.2744140625	1427.637329101562	-507.7410278320312	316.2334594726562	1440.634155273438	-629.386474609375	232.2662963867188	1319.221923828125	-645.5508422851562	205.1477508544922	1107.764526367188	-677.784423828125	267.7144775390625	1085.13427734375	-590.743896484375	296.4827270507812	878.755126953125	-768.6846923828125	222.7247772216797	860.9848022460938	-730.3173217773438	203.7247924804688	1000.636535644531	-708.7442016601562	320.0270080566406	693.4268188476562	-789.842529296875	236.6351928710938	784.5560302734375	-766.5027465820312	299.5183410644531	796.9797973632812	-797.8394165039062	632.3101806640625	1421.106567382812	-486.7765197753906	683.0634155273438	1353.027099609375	-452.2237243652344	706.9279174804688	1096.313232421875	-399.9986877441406	635.275390625	1066.455688476562	-464.0523071289062	762.811279296875	843.3212280273438	-533.8656616210938	773.97607421875	832.7869262695312	-448.002685546875	726.7540893554688	1017.481201171875	-404.0683288574219	765.3963012695312	654.1904907226562	-553.6173095703125	779.590087890625	742.9031982421875	-550.3611450195312	800.2830810546875	744.8409423828125	-476.3658752441406	419.8458557128906	1633.912841796875	-506.0352783203125	573.9195556640625	1689.197387695312	-646.8821411132812	449.9379272460938	1694.295532226562	-671.3501586914062	556.2125244140625	1622.62255859375	-489.5281677246094	299.0028686523438	938.4336547851562	-601.8046875	628.8250122070312	941.7134399414062	-502.8543395996094	638.0465087890625	967.3762817382812	-628.2738647460938	378.0033264160156	952.93994140625	-697.1787719726562	393.1027526855469	462.2615051269531	-653.9054565429688	344.3901977539062	608.8688354492188	-640.2723388671875	255.6404418945312	125.7103042602539	-319.3692321777344	308.5519714355469	286.7979125976562	-480.8335266113281	386.8999633789062	34.99541473388672	-418.6694030761719	394.6680603027344	57.84265518188477	-363.9589233398438	286.3705444335938	46.96809005737305	-390.5177307128906	292.0832214355469	182.1431884765625	-253.7705688476562	637.7913818359375	519.822265625	-693.1514282226562	661.476806640625	784.0648193359375	-624.8905639648438	640.3115844726562	34.29603958129883	-685.1880493164062	646.66357421875	393.9839782714844	-701.6386108398438	612.402587890625	38.3307991027832	-904.607666015625	571.9268798828125	42.7986946105957	-845.3766479492188	662.3941040039062	41.45190048217773	-806.8347778320312	579.4192504882812	35.01190948486328	-644.7224731445312	
411	4.1	542.5783081054688	1010.093017578125	-454.6004333496094	370.9540405273438	1000.1669921875	-484.6191711425781	446.2433471679688	1062.112060546875	-473.8695983886719	526.2776489257812	1270.317016601562	-702.132080078125	429.9857788085938	1191.671020507812	-454.3795471191406	453.843017578125	1461.225219726562	-495.8301086425781	517.3406372070312	1382.7333984375	-667.4302368164062	496.9958801269531	1316.772827148438	-419.7999267578125	350.3638305664062	1428.630004882812	-512.3908081054688	319.5270385742188	1441.57470703125	-633.88720703125	235.3031005859375	1320.299438476562	-649.5865478515625	207.6702423095703	1108.959228515625	-681.985595703125	270.206787109375	1086.230346679688	-595.0881958007812	297.9603576660156	879.5281982421875	-772.8530883789062	224.1357574462891	862.0537109375	-734.3779296875	205.7911682128906	1001.813171386719	-712.8825073242188	320.8872375488281	694.0728149414062	-793.7107543945312	237.7987518310547	785.5169677734375	-770.46826171875	300.7098083496094	797.6719360351562	-801.8561401367188	636.6116943359375	1422.20361328125	-493.6685180664062	687.7002563476562	1354.205932617188	-459.50146484375	712.4989013671875	1097.549560546875	-407.4297485351562	640.3019409179688	1067.652221679688	-470.9446716308594	767.542724609375	845.2473754882812	-543.1140747070312	779.2511596679688	834.0053100585938	-457.3437805175781	732.3601684570312	1018.554260253906	-411.8645629882812	769.6351318359375	655.671142578125	-563.1630859375	783.8350219726562	744.3721923828125	-560.036376953125	805.3939819335938	746.253662109375	-486.5140075683594	423.6914367675781	1634.693359375	-511.3331909179688	577.2178955078125	1690.193969726562	-652.7022094726562	453.1250915527344	1695.343872070312	-676.68212890625	560.08642578125	1623.341918945312	-495.4021606445312	302.93994140625	938.9107666015625	-605.8701782226562	632.793212890625	942.8054809570312	-508.762939453125	641.6357421875	968.7128295898438	-634.472412109375	380.8818054199219	953.8550415039062	-701.7722778320312	395.3733825683594	463.1954956054688	-666.2133178710938	347.3258361816406	609.7069091796875	-649.59619140625	259.8783874511719	132.7825317382812	-323.8114318847656	311.9562072753906	290.7384643554688	-489.1394348144531	386.7310791015625	33.99614334106445	-423.2653198242188	396.7269592285156	60.7180290222168	-369.5457763671875	287.5402526855469	50.59975051879883	-392.6581115722656	298.7492980957031	190.3472595214844	-260.8027038574219	640.1675415039062	519.5387573242188	-695.6028442382812	664.5319213867188	783.9984741210938	-629.16259765625	640.419921875	34.19315719604492	-685.21240234375	648.5662231445312	393.6849060058594	-703.3500366210938	612.5965576171875	37.69122695922852	-904.7772216796875	572.1194458007812	42.6409912109375	-845.5643920898438	662.55224609375	41.0352668762207	-806.9932250976562	579.5435791015625	35.04872131347656	-644.7340698242188	
412	4.11	546.5847778320312	1011.279052734375	-460.0100402832031	374.773193359375	1000.551452636719	-488.9420776367188	450.4164123535156	1062.94189453125	-478.8262634277344	528.8023681640625	1271.117919921875	-707.9037475585938	434.4923095703125	1192.637084960938	-459.2782897949219	458.1211242675781	1462.157104492188	-501.0355529785156	520.1317749023438	1383.561889648438	-673.2234497070312	501.8298645019531	1317.796142578125	-425.3171691894531	354.3599243164062	1429.525268554688	-516.869384765625	322.6484985351562	1442.393798828125	-638.1992797851562	238.1852569580078	1321.221557617188	-653.35302734375	210.0443115234375	1110.015625	-685.9556884765625	272.6273803710938	1087.159912109375	-599.2342529296875	299.4029541015625	880.2828979492188	-776.9494018554688	225.5102996826172	863.0353393554688	-738.3656005859375	207.7668151855469	1002.867492675781	-716.8543090820312	321.7935485839844	694.7584838867188	-797.7412719726562	238.9805297851562	786.4471435546875	-774.470458984375	301.9017333984375	798.3984375	-805.897216796875	640.7994384765625	1423.220825195312	-500.5060729980469	692.241943359375	1355.302734375	-466.7598876953125	718.1133422851562	1098.733764648438	-414.8639526367188	645.2173461914062	1068.6689453125	-477.6248779296875	772.1732177734375	847.168212890625	-552.4097900390625	784.473388671875	835.1692504882812	-466.7420654296875	737.9849853515625	1019.553161621094	-419.6605529785156	773.7302856445312	657.0936889648438	-572.7659301757812	787.9363403320312	745.7830200195312	-569.7687377929688	810.414794921875	747.5962524414062	-496.75927734375	427.4294128417969	1635.46484375	-516.5823974609375	580.414794921875	1691.066772460938	-658.486572265625	456.2194519042969	1696.309936523438	-681.9832153320312	563.8411254882812	1624.010375976562	-501.2157897949219	306.601806640625	939.3524169921875	-609.96533203125	636.5801391601562	943.8035888671875	-514.41064453125	645.1250610351562	969.8794555664062	-640.3698120117188	383.7307739257812	954.6577758789062	-706.2649536132812	397.5516967773438	464.2185974121094	-678.403564453125	350.1126708984375	610.5892944335938	-658.8413696289062	264.5430297851562	139.8922576904297	-328.5877685546875	315.5797119140625	294.5829772949219	-497.5541687011719	386.3068237304688	33.16193008422852	-429.09033203125	398.8147277832031	63.76907348632812	-376.2855224609375	288.7706909179688	54.94634246826172	-395.5321350097656	305.8279724121094	198.0793609619141	-267.9799194335938	642.4373168945312	519.2232666015625	-698.047607421875	667.4935302734375	783.9813232421875	-633.3488159179688	640.5015869140625	34.090576171875	-685.2256469726562	650.3637084960938	393.3748779296875	-705.0399780273438	612.749755859375	37.15545654296875	-904.8949584960938	572.2753295898438	42.50623321533203	-845.7100219726562	662.6728515625	40.6307258605957	-807.1279296875	579.6405639648438	35.0872917175293	-644.7486572265625	
413	4.12	550.4506225585938	1012.437866210938	-465.1967468261719	378.4129028320312	1000.896057128906	-493.2140502929688	454.4060363769531	1063.656616210938	-483.6720275878906	531.194091796875	1271.849609375	-713.541259765625	438.8785705566406	1193.543334960938	-464.0445251464844	462.23095703125	1463.04638671875	-506.136474609375	522.8060913085938	1384.362182617188	-678.9312744140625	506.5636901855469	1318.77001953125	-430.7097778320312	358.2554931640625	1430.338134765625	-521.1837768554688	325.6038208007812	1443.110717773438	-642.323974609375	240.9300079345703	1322.010375976562	-656.857666015625	212.2857818603516	1110.9462890625	-689.6686401367188	275.051025390625	1087.940185546875	-603.1729125976562	300.7925109863281	881.0282592773438	-780.9735717773438	226.8451995849609	863.9404296875	-742.2366333007812	209.6577911376953	1003.808044433594	-720.6196899414062	322.7175903320312	695.486572265625	-801.947509765625	240.158447265625	787.3497314453125	-778.4634399414062	303.0532836914062	799.1664428710938	-809.9659423828125	644.8621215820312	1424.16796875	-507.2643127441406	696.6758422851562	1356.32666015625	-473.9749145507812	723.7483520507812	1099.860107421875	-422.3190002441406	650.0311279296875	1069.5458984375	-484.1619873046875	776.6854858398438	849.0597534179688	-561.7313842773438	789.638916015625	836.2867431640625	-476.1831665039062	743.6134643554688	1020.483032226562	-427.4768371582031	777.822998046875	658.6701049804688	-582.5449829101562	792.03515625	747.3478393554688	-579.6773071289062	815.3485107421875	748.8887329101562	-507.0758056640625	431.052490234375	1636.23828125	-521.7796020507812	583.5050048828125	1691.8310546875	-664.2379150390625	459.2155456542969	1697.203979492188	-687.250732421875	567.4784545898438	1624.645629882812	-506.966552734375	310.0303955078125	939.7893676757812	-614.096923828125	640.1838989257812	944.69921875	-519.8068237304688	648.540283203125	970.9063720703125	-645.9976806640625	386.5697326660156	955.380126953125	-710.6657104492188	399.6647033691406	465.3424987792969	-690.4273071289062	352.7446594238281	611.54638671875	-667.98974609375	269.6669921875	146.8728790283203	-333.691162109375	319.3751831054688	298.3283081054688	-506.0234375	385.54541015625	32.68914794921875	-436.1964416503906	400.8353881835938	66.88906097412109	-384.2543334960938	290.0282287597656	59.91461944580078	-399.2530517578125	313.3205871582031	205.1795654296875	-275.2624816894531	644.5763549804688	518.9147338867188	-700.5409545898438	670.3389892578125	784.0023803710938	-637.4915161132812	640.5459594726562	33.99894714355469	-685.2381591796875	652.0120849609375	393.0594177246094	-706.7615356445312	612.8497924804688	36.70979309082031	-904.9736328125	572.38818359375	42.37750244140625	-845.8223266601562	662.765869140625	40.27145767211914	-807.2418823242188	579.6982421875	35.1303825378418	-644.7708129882812	
